<svg width="696" height="550" viewBox="0 0 696 550" fill="none" xmlns="http://www.w3.org/2000/svg">
<path d="M197 309.858C197.732 310.105 198.464 310.351 199.219 310.606C212.936 315.324 225.102 321.8 236.867 330.323C238.75 331.678 240.663 332.934 242.625 334.171C243.409 334.727 244.192 335.284 245 335.858C245 336.518 245 337.178 245 337.858C245.592 338.134 246.183 338.41 246.793 338.694C253.404 342.181 258.33 348.162 263 353.858C263.763 354.772 264.526 355.686 265.312 356.628C277.315 371.537 284.809 388.449 292.141 405.999C292.608 407.117 293.075 408.235 293.557 409.387C294.563 411.808 295.561 414.231 296.553 416.657C297.071 417.906 297.59 419.156 298.109 420.405C298.797 422.081 298.797 422.081 299.499 423.791C301.011 426.88 302.831 429.209 305 431.858C305 432.518 305 433.178 305 433.858C308.317 435.28 311.442 436.248 315 436.858C317.895 431.366 320.049 426.03 321.875 420.108C325.446 409.035 330.012 397.557 338 388.858C340.211 388.089 340.211 388.089 342 387.858C343.558 390.661 344.292 392.891 344.562 396.081C344.675 397.259 344.675 397.259 344.789 398.462C344.93 400.105 345.071 401.748 345.211 403.391C345.323 404.568 345.323 404.568 345.438 405.768C345.498 406.481 345.559 407.194 345.621 407.929C345.934 410.175 345.934 410.175 348 412.858C351.587 413.429 353.597 413.051 356.875 411.483C360.652 408.73 363.293 404.907 366.07 401.198C367.893 398.988 369.64 397.458 372 395.858C374.635 398.383 375.001 399.869 375.312 403.546C374.758 418.24 372.166 432.143 367.188 445.983C366.033 449.268 365.8 451.475 367 454.858C381.148 455.926 393.627 447.57 404.438 439.296C417.642 429.189 431.217 419.439 447 413.858C448.051 413.473 449.101 413.087 450.184 412.69C476.636 403.722 508.808 405.955 535 414.858C536.026 415.193 537.052 415.528 538.109 415.874C548.005 419.369 556.952 424.611 566 429.858C566 430.518 566 431.178 566 431.858C566.713 432.102 567.426 432.345 568.16 432.596C576.023 436.09 582.904 443.019 588 449.858C588.773 451.932 588.773 451.932 589 453.858C586.295 456.563 584.712 456.118 580.938 456.233C570.094 456.936 561.991 462.272 553.059 468.131C548.893 470.759 545.887 471.257 541 470.858C541 471.518 541 472.178 541 472.858C539.391 473.917 537.735 474.904 536.062 475.858C530.618 479.185 526.817 483.014 522.777 487.917C522.191 488.557 521.604 489.198 521 489.858C520.34 489.858 519.68 489.858 519 489.858C518.771 490.501 518.541 491.145 518.305 491.807C516.539 495.935 514.336 499.767 512.125 503.671C511.251 505.218 510.378 506.766 509.508 508.315C509.081 509.067 508.655 509.82 508.216 510.595C507.024 512.814 506.013 515.068 504.992 517.37C503.642 520.099 503.343 520.694 500.5 522.053C497.312 521.804 496.287 520.937 494 518.733C493.317 518.085 492.634 517.436 491.93 516.768C491.293 516.138 490.656 515.507 490 514.858C489.051 513.971 488.103 513.084 487.125 512.171C485 509.858 485 509.858 484.062 507.671C483.107 505.577 483.107 505.577 480.438 505.046C477.036 503.871 475.509 502.759 472.812 500.483C465.123 494.324 457.484 492.391 447.727 492.522C441.875 493.243 438.262 495.874 434 499.858C432.973 501.508 431.964 503.17 431 504.858C430.34 504.858 429.68 504.858 429 504.858C428.724 505.737 428.448 506.616 428.164 507.522C427.093 510.59 425.829 513.332 424.375 516.233C419.918 525.687 416.931 535.694 413.753 545.634C413 547.858 413 547.858 412 549.858C409.346 549.756 407.551 549.349 405.543 547.56C403.97 545.805 402.476 544.008 401 542.171C400.492 541.558 399.984 540.945 399.461 540.313C397.497 537.938 395.552 535.549 393.628 533.142C391.515 530.533 389.623 528.277 386.688 526.608C385.801 526.031 384.914 525.453 384 524.858C384 524.198 384 523.538 384 522.858C383.299 522.578 382.598 522.299 381.875 522.01C378.913 520.823 375.953 519.63 373 518.421C371.989 518.009 370.979 517.598 369.938 517.174C367 515.858 367 515.858 364.477 514.272C357.473 510.273 346.897 509.881 339 510.858C331.009 514.239 326.843 523.51 322.375 530.546C321.798 531.454 321.22 532.363 320.625 533.299C319.617 534.886 318.616 536.476 317.625 538.073C315.699 541.016 314.589 542.662 311.188 543.796C310.466 543.816 309.744 543.837 309 543.858C307.99 540.828 307.79 538.511 307.641 535.335C306.642 517.318 305.38 504.127 291.438 491.546C274.125 483.047 254.463 486.718 236.52 490.667C232.351 491.584 228.25 492.441 224 492.858C223.67 492.528 223.34 492.198 223 491.858C223.05 484.904 224.106 478.002 225.148 471.142C229.263 446.033 229.263 446.033 221 422.858C217.748 419.269 214.363 415.988 209.361 415.713C205.741 415.688 202.121 415.672 198.5 415.671C197.257 415.658 196.015 415.646 194.734 415.633C188.283 415.623 182.331 415.956 176.042 417.411C172.33 418.224 168.777 417.98 165 417.858C163.854 414.421 163.95 411.917 164.043 408.296C164.069 406.94 164.093 405.585 164.116 404.23C164.129 403.517 164.142 402.804 164.154 402.07C164.525 377.306 164.157 348.025 146.125 328.866C141.153 324.355 135.557 320.605 130 316.858C130.573 313.991 130.861 312.997 133 310.858C152.562 302.758 177.085 302.971 197 309.858Z" fill="#94050D"/>
<path d="M455 5.85803C455.66 6.84803 456.32 7.83803 457 8.85803C443.096 19.858 443.096 19.858 440 19.858C440 20.518 440 21.178 440 21.858C439.175 22.4562 438.35 23.0543 437.5 23.6705C428.117 31.1861 421.798 46.1909 420 57.858C418.485 72.1069 419.092 85.9225 422.071 99.9613C423.014 104.662 422.905 108.225 422 112.858C415.666 113.036 409.751 112.328 403.5 111.358C383.494 108.194 383.494 108.194 364.824 114.264C358.333 119.296 355.635 124.957 354.59 133.026C353.931 148.258 358.345 164.035 363.301 178.335C364.033 180.977 364.206 183.13 364 185.858C363 186.858 363 186.858 360.312 187.046C356.782 186.846 354.326 186.051 351 184.858C349.192 184.321 347.379 183.802 345.562 183.296C344.677 183.047 343.791 182.798 342.879 182.542C335.348 180.753 327.952 180.643 320.25 180.608C319.134 180.587 318.017 180.567 316.867 180.546C306.499 180.497 297.598 182.111 288.938 187.983C287.853 188.687 286.769 189.391 285.652 190.116C278.735 197.267 280.556 210.519 280.375 219.921C280.337 221.566 280.298 223.211 280.258 224.856C280.163 228.857 280.078 232.857 280 236.858C278.122 237.453 278.122 237.453 276 237.858C272.332 234.997 269.879 231.027 267.25 227.233C257.992 212.708 257.992 212.708 244 203.858C230.723 202.298 217.457 208.071 207 215.858C204.623 217.96 202.274 220.085 199.953 222.249C198 223.858 198 223.858 196 223.858C196 224.518 196 225.178 196 225.858C195.34 225.858 194.68 225.858 194 225.858C193.781 226.38 193.562 226.902 193.336 227.44C191.476 230.807 189.096 233.61 186.625 236.546C186.143 237.139 185.661 237.733 185.164 238.344C182.579 241.425 180.968 243.153 177 243.858C173.895 238.696 171.541 233.507 169.312 227.921C166.639 221.412 163.744 215.129 160.312 208.983C159.956 208.336 159.6 207.689 159.234 207.022C156.943 203.03 154.276 200.059 151 196.858C151 196.198 151 195.538 151 194.858C150.319 194.59 149.639 194.322 148.938 194.046C146 192.858 146 192.858 142.875 191.233C135.701 188.227 128.733 189.276 121.688 192.108C114.139 195.596 108.501 200.089 102.398 205.678C100.508 207.397 98.6021 209.055 96.625 210.671C93.9717 212.774 93.9717 212.774 91.875 215.233C91.2563 215.769 90.6375 216.306 90 216.858C87.5628 216.612 86.3629 216.24 84.6631 214.45C84.0796 213.558 84.0796 213.558 83.4844 212.647C83.0417 211.984 82.599 211.322 82.1428 210.639C81.6832 209.928 81.2236 209.216 80.75 208.483C79.7761 207.017 78.8008 205.552 77.8242 204.089C77.3465 203.367 76.8687 202.646 76.3765 201.902C74.5155 199.138 72.5505 196.47 70.5625 193.796C63 183.484 63 183.484 63 179.858C62.398 179.608 61.796 179.358 61.1758 179.1C58.683 177.677 57.7483 176.367 56.1875 173.983C53.7722 170.617 51.5984 168.705 47.8164 166.842C45.8181 165.759 44.2904 164.457 42.5625 162.983C30.3652 153.858 17.4968 153.05 2.78735 153.876C1 153.858 1 153.858 0 152.858C0.149473 145.534 3.64663 141.196 8.71875 136.147C10.7573 134.307 12.8614 132.581 15 130.858C15.9371 130.073 16.8743 129.288 17.8398 128.479C42.0909 108.592 76.0527 101.584 106.88 104.092C139.062 107.338 163.829 119.896 190.275 137.699C192.86 139.436 195.454 141.157 198.062 142.858C198.878 143.394 199.694 143.931 200.535 144.483C205.051 147.002 209.151 148.132 214.312 148.046C215.175 148.039 216.037 148.033 216.926 148.026C218.99 148.084 218.99 148.084 220 146.858C219.471 139.695 218.03 132.803 216.5 125.796C212.565 107.707 212.565 107.707 213.375 99.983C213.51 98.5947 213.51 98.5947 213.648 97.1783C214 94.858 214 94.858 215 92.858C219.417 93.2875 221.22 96.0042 224 99.233C228.043 104.066 228.043 104.066 233 107.858C236.688 107.629 236.688 107.629 240 106.858C242.353 102.083 242.65 97.266 243.125 92.0455C243.255 90.7201 243.255 90.7201 243.387 89.3678C243.598 87.1985 243.8 85.0283 244 82.858C245.32 82.528 246.64 82.198 248 81.858C257.802 91.1696 262.591 104.506 267.676 116.772C268.6 118.925 269.604 121.044 270.668 123.131C272 125.858 272 125.858 272 127.858C277.33 127.44 280.283 126.766 284 122.858C290.851 113.029 295.108 101.984 298.812 90.6705C302.102 80.9059 306.13 71.9185 311 62.858C311.498 61.8229 311.995 60.7878 312.508 59.7213C327.319 31.3017 362.099 14.6559 391.125 5.30334C410.326 -0.573605 436.402 -3.08313 455 5.85803Z" fill="#95050D"/>
<path d="M694 70.858C694.66 71.518 695.32 72.178 696 72.858C695.832 78.4181 691.937 82.3204 688.682 86.5104C679.736 98.4298 678.927 118.988 680.43 133.456C682.044 143.086 685.253 152.062 689.157 160.973C691.105 165.542 691.105 165.542 690 168.858C685.094 169.921 680.21 170.848 675.234 171.518C662.19 173.158 662.19 173.158 650 177.858C648.886 178.436 647.773 179.013 646.625 179.608C641.664 183.861 639.29 190.057 638.625 196.483C638.843 209.874 645.097 221.797 652 232.858C656.55 240.32 656.55 240.32 656 244.858C653.04 245.845 651.243 245.95 648.168 245.885C647.212 245.871 646.255 245.857 645.27 245.842C644.253 245.827 643.236 245.811 642.188 245.796C625.219 245.733 609.633 247.232 595.957 258.327C591.9 262.507 589.473 265.578 588.952 271.574C589.047 276.079 590.234 280.334 591.375 284.671C591.61 285.611 591.844 286.551 592.086 287.52C592.964 291.009 593.862 294.444 595 297.858C595.128 300.532 595.044 303.179 595 305.858C592 306.858 592 306.858 590.379 306.065C585.889 302.618 581.943 298.84 578 294.796C570.325 286.914 570.325 286.914 560.188 283.233C547.622 284.076 536.507 294.112 528.485 303.031C522.321 310.614 518.097 320.155 514.168 329.038C512.748 331.251 511.411 331.898 509 332.858C503.817 327.989 499.613 322.426 495.418 316.698C484.864 302.364 484.864 302.364 470 293.858C463.539 292.951 457.815 292.804 452.125 296.296C443.844 302.76 438.419 312.249 433.656 321.456C433.233 322.269 432.811 323.082 432.375 323.921C432.011 324.654 431.648 325.387 431.273 326.143C430 327.858 430 327.858 428.164 328.854C424.768 328.86 423.411 327.145 421 324.858C419.561 323.186 418.166 321.475 416.812 319.733C403.544 303.251 389.05 293.35 367.938 290.296C360.719 289.556 354.469 290.503 347.426 292.131C344.472 292.758 341.999 293.007 339 292.858C337.157 287.951 339.35 284.121 341.227 279.503C350.287 259.865 368.043 245.701 387.875 237.921C389.91 237.213 391.952 236.525 394 235.858C395.039 235.492 396.078 235.126 397.148 234.749C403.036 232.702 408.859 230.936 415 229.858C416.029 229.672 417.057 229.487 418.117 229.296C444.154 225.193 467.932 229.32 492.541 237.999C507.875 243.411 507.875 243.411 524 243.858C524.66 243.528 525.32 243.198 526 242.858C525.483 237.354 523.412 233.508 520.75 228.796C510.044 209.134 510.044 209.134 511 197.858C511.66 197.528 512.32 197.198 513 196.858C516.402 198.667 519.681 200.607 522.971 202.61C528.102 205.676 528.102 205.676 534 205.858C535.31 201.928 535.572 198.01 534.496 193.964C533.905 191.455 533.904 189.182 533.938 186.608C533.947 185.716 533.956 184.824 533.965 183.905C533.982 182.892 533.982 182.892 534 181.858C539.857 182.144 543.137 184.721 547 188.858C551.316 194.106 555.387 199.517 559.242 205.112C559.925 206.101 560.609 207.089 561.312 208.108C561.907 209 562.501 209.892 563.113 210.811C565.381 213.271 566.691 213.702 570 213.858C574.806 210.607 576.393 204.878 577.491 199.413C577.91 196.683 578.271 193.951 578.613 191.21C578.895 189.13 579.177 187.051 579.459 184.971C579.886 181.743 580.308 178.514 580.721 175.284C582.87 158.636 585.502 141.959 594.375 127.358C594.953 126.377 594.953 126.377 595.542 125.376C610.467 100.566 638.033 80.332 665.922 72.6041C675.404 70.3059 684.274 69.0581 694 70.858Z" fill="#93060F"/>
<path d="M13 132.858C13 133.848 13 134.838 13 135.858C12.34 136.518 11.68 137.178 11 137.858C11.99 138.518 12.98 139.178 14 139.858C12.5016 142.97 10.8007 145.911 9 148.858C10.7926 148.771 12.5842 148.663 14.375 148.546C15.3727 148.488 16.3705 148.43 17.3984 148.37C18.257 148.201 19.1155 148.032 20 147.858C20.66 146.868 21.32 145.878 22 144.858C27.1218 145.789 32.0644 147.213 37 148.858C37 149.518 37 150.178 37 150.858C35.9487 150.834 35.9487 150.834 34.8762 150.81C31.6884 150.748 28.5007 150.709 25.3125 150.671C23.6583 150.633 23.6583 150.633 21.9707 150.594C20.3707 150.58 20.3707 150.58 18.7383 150.565C17.759 150.549 16.7797 150.534 15.7708 150.517C12.5267 150.916 10.7383 152.132 8 153.858C4.25 154.108 4.25 154.108 1 153.858C0.67 153.528 0.34 153.198 0 152.858C0.132541 146.364 2.69012 142.594 7 137.858C8.93283 136.052 10.8915 134.465 13 132.858Z" fill="#7D1B1F"/>
<path d="M229 469.858C229 472.858 229 472.858 228.375 475.046C227.843 479.033 228.889 482.003 230 485.858C230.743 485.528 231.485 485.198 232.25 484.858C235 483.858 235 483.858 239 483.858C239 483.198 239 482.538 239 481.858C244.364 479.176 248.01 478.543 254 478.858C254.562 480.796 254.562 480.796 255 482.858C253.263 484.595 250.74 484.398 248.375 484.733C242.585 485.661 237.648 486.707 233 490.483C230.125 492.459 227.427 492.599 224 492.858C223.67 492.528 223.34 492.198 223 491.858C223.038 489.793 223.157 487.73 223.312 485.671C223.391 484.543 223.47 483.415 223.551 482.253C224.204 477.319 225.03 473.106 229 469.858Z" fill="#79161F"/>
<path d="M569 449.858C567.02 450.518 565.04 451.178 563 451.858C563 452.518 563 453.178 563 453.858C562.01 453.528 561.02 453.198 560 452.858C559.464 453.477 558.928 454.096 558.375 454.733C555.651 457.17 553.467 457.797 550 458.858C548.33 459.852 546.663 460.852 545 461.858C542.688 462.546 542.688 462.546 541 462.858C541 461.868 541 460.878 541 459.858C540.051 460.497 539.103 461.137 538.125 461.796C535 463.858 535 463.858 533 464.858C533.502 461.142 534.002 459.175 537 456.858C539.827 456.186 542.623 455.85 545.504 455.483C548.345 455.069 548.345 455.069 550 451.858C552.562 451.733 552.562 451.733 555 451.858C555.33 451.528 555.66 451.198 556 450.858C557.613 450.436 559.242 450.069 560.875 449.733C561.759 449.545 562.644 449.357 563.555 449.163C566 448.858 566 448.858 569 449.858Z" fill="#5F090F"/>
<path d="M453 228.858C466.622 229.157 480.846 232.667 493 238.858C492.67 239.518 492.34 240.178 492 240.858C491.432 240.569 490.863 240.281 490.277 239.983C485.191 237.537 481.712 236.654 476 236.858C472.305 236.222 468.687 235.293 465.059 234.358C462.634 233.769 460.198 233.279 457.75 232.796C456.858 232.619 455.966 232.442 455.047 232.26C454.371 232.128 453.696 231.995 453 231.858C453 230.868 453 229.878 453 228.858Z" fill="#980F17"/>
<path d="M245 81.858C247.787 82.1463 249.047 82.8956 251.25 84.6705C253 86.858 253 86.858 253 90.858C251.68 90.858 250.36 90.858 249 90.858C248.67 94.818 248.34 98.778 248 102.858C247.67 102.858 247.34 102.858 247 102.858C246.876 102.095 246.752 101.332 246.625 100.546C246.119 97.6554 246.119 97.6554 244 94.858C243.77 91.9752 243.77 91.9752 243.812 88.733C243.819 87.658 243.825 86.5829 243.832 85.4752C244 82.858 244 82.858 245 81.858Z" fill="#8F1C25"/>
<path d="M324 172.858C324.66 172.528 325.32 172.198 326 171.858C328 171.818 330 171.815 332 171.858C332.66 173.178 333.32 174.498 334 175.858C330.049 176.026 326.098 176.186 322.147 176.34C320.141 176.42 318.135 176.505 316.129 176.59C314.872 176.639 313.615 176.687 312.32 176.737C310.576 176.808 310.576 176.808 308.797 176.88C306 176.858 306 176.858 304 175.858C304.33 174.868 304.66 173.878 305 172.858C307.041 172.661 309.083 172.476 311.125 172.296C312.262 172.191 313.399 172.087 314.57 171.979C317.889 171.862 320.743 172.296 324 172.858Z" fill="#730911"/>
<path d="M370 279.858C370.99 280.188 371.98 280.518 373 280.858C372.67 282.178 372.34 283.498 372 284.858C371.322 284.907 370.644 284.956 369.945 285.006C363.507 285.524 357.303 286.45 351 287.858C350.67 287.198 350.34 286.538 350 285.858C350.66 285.858 351.32 285.858 352 285.858C352 285.198 352 284.538 352 283.858C357.362 281.122 359.952 280.831 366 281.858C368.201 280.925 368.201 280.925 370 279.858Z" fill="#780E18"/>
<path d="M534 181.858C538.752 182.29 540.92 183.186 544 186.858C542.02 187.518 540.04 188.178 538 188.858C537.67 193.478 537.34 198.098 537 202.858C536.67 202.858 536.34 202.858 536 202.858C534.49 195.768 533.717 189.108 534 181.858Z" fill="#971A20"/>
<path d="M99.875 103.608C103.054 103.677 105.296 104.055 108 105.858C106 107.858 106 107.858 103.375 107.983C102.591 107.942 101.808 107.901 101 107.858C100.67 108.518 100.34 109.178 100 109.858C98.0201 109.745 96.0411 109.617 94.0625 109.483C92.9604 109.413 91.8582 109.344 90.7227 109.272C89.8242 109.135 88.9257 108.999 88 108.858C87.67 108.198 87.34 107.538 87 106.858C88.1137 106.734 89.2275 106.611 90.375 106.483C94.7656 105.726 95.3497 103.9 99.875 103.608Z" fill="#920D15"/>
<path d="M172 384.858C172.66 385.188 173.32 385.518 174 385.858C173.94 387.963 173.851 390.067 173.75 392.171C173.704 393.342 173.657 394.514 173.609 395.721C173 398.858 173 398.858 171 400.577C170.01 401.211 170.01 401.211 169 401.858C168.191 404.96 168.191 404.96 168 407.858C167.67 407.858 167.34 407.858 167 407.858C166.973 406.379 166.954 404.9 166.938 403.421C166.926 402.597 166.914 401.773 166.902 400.924C167 398.858 167 398.858 168 397.858C168.244 395.049 168.384 392.241 168.523 389.424C168.759 388.154 168.759 388.154 169 386.858C169.99 386.198 170.98 385.538 172 384.858Z" fill="#840A14"/>
<path d="M22 144.858C27.1218 145.789 32.0644 147.213 37 148.858C37 149.518 37 150.178 37 150.858C31.72 150.858 26.44 150.858 21 150.858C21.33 148.878 21.66 146.898 22 144.858Z" fill="#7E0F19"/>
<path d="M453 4.85803C452.67 5.51803 452.34 6.17803 452 6.85803C449.686 7.58879 447.352 8.25941 445 8.85803C445 8.19803 445 7.53803 445 6.85803C443.732 6.91991 443.732 6.91991 442.438 6.98303C438.578 6.84268 435.663 6.03023 432 4.85803C432 4.52803 432 4.19803 432 3.85803C439.193 0.722421 445.864 2.11342 453 4.85803Z" fill="#7F1C20"/>
<path d="M254 478.858C254.562 480.796 254.562 480.796 255 482.858C253.287 484.571 251.028 484.348 248.688 484.608C247.722 484.727 246.756 484.845 245.762 484.967C242.522 484.839 241.346 484.02 239 481.858C244.147 478.691 248.158 478.508 254 478.858Z" fill="#720E17"/>
<path d="M559 275.858C558.67 276.848 558.34 277.838 558 278.858C556.145 279.667 556.145 279.667 553.812 280.296C549.569 281.57 546.544 283.223 543 285.858C541.68 285.198 540.36 284.538 539 283.858C541.251 281.94 542.685 280.918 545.625 280.358C548.364 280.071 548.364 280.071 550 276.858C552.987 275.725 555.833 275.77 559 275.858Z" fill="#75080F"/>
<path d="M512 196.858C513.632 197.593 515.255 198.346 516.875 199.108C517.78 199.526 518.685 199.943 519.617 200.374C522.2 201.982 522.956 203.05 524 205.858C523.299 205.363 522.598 204.868 521.875 204.358C518.629 202.664 516.607 202.606 513 202.858C513.33 205.828 513.66 208.798 514 211.858C512 210.858 512 210.858 511.383 209.089C510.98 206.741 510.867 204.552 510.875 202.171C510.872 201.383 510.87 200.595 510.867 199.784C511 197.858 511 197.858 512 196.858Z" fill="#86131A"/>
<path d="M415 58.858C415.33 58.858 415.66 58.858 416 58.858C416 69.088 416 79.318 416 89.858C415.67 89.858 415.34 89.858 415 89.858C414.67 85.898 414.34 81.938 414 77.858C413.67 77.858 413.34 77.858 413 77.858C413 74.228 413 70.598 413 66.858C413.66 66.858 414.32 66.858 415 66.858C415 64.218 415 61.578 415 58.858Z" fill="#780A15"/>
<path d="M569 449.858C567.02 450.518 565.04 451.178 563 451.858C563 452.518 563 453.178 563 453.858C562.01 453.528 561.02 453.198 560 452.858C559.361 453.353 558.721 453.848 558.062 454.358C557.382 454.853 556.701 455.348 556 455.858C554 455.483 554 455.483 552 454.858C549.813 455.237 549.813 455.237 548 455.858C548.66 454.538 549.32 453.218 550 451.858C551.207 451.889 551.207 451.889 552.438 451.921C554.934 452.154 554.934 452.154 556 450.858C557.613 450.436 559.242 450.069 560.875 449.733C561.759 449.545 562.644 449.357 563.555 449.163C566 448.858 566 448.858 569 449.858Z" fill="#6C0F17"/>
<path d="M229 469.858C229 475.076 227.489 479.716 225.938 484.671C225.575 485.832 225.213 486.993 224.84 488.19C224.563 489.07 224.286 489.951 224 490.858C223.67 490.858 223.34 490.858 223 490.858C223.962 475.209 223.962 475.209 227.625 470.983C228.079 470.612 228.532 470.241 229 469.858Z" fill="#891117"/>
<path d="M686.188 70.2955C687.539 70.4483 687.539 70.4483 688.918 70.6041C689.605 70.6879 690.292 70.7717 691 70.858C691 71.848 691 72.838 691 73.858C687.7 73.858 684.4 73.858 681 73.858C681 73.198 681 72.538 681 71.858C680.01 71.528 679.02 71.198 678 70.858C681.2 69.7913 682.885 69.9096 686.188 70.2955ZM679 73.858C679.66 74.188 680.32 74.518 681 74.858C680.01 74.858 679.02 74.858 678 74.858C678.33 74.528 678.66 74.198 679 73.858Z" fill="#892024"/>
<path d="M214 97.858C214.66 97.858 215.32 97.858 216 97.858C216 104.788 216 111.718 216 118.858C215.67 118.858 215.34 118.858 215 118.858C213.66 111.594 212.569 105.155 214 97.858Z" fill="#891117"/>
<path d="M357 500.858C357 501.848 357 502.838 357 503.858C346.442 504.227 346.442 504.227 342 501.858C342 501.528 342 501.198 342 500.858C347.376 500.009 351.654 499.856 357 500.858Z" fill="#77080F"/>
<path d="M143 308.858C143 309.518 143 310.178 143 310.858C141.377 311.529 139.751 312.195 138.125 312.858C136.768 313.415 136.768 313.415 135.383 313.983C133 314.858 133 314.858 131 314.858C130.67 315.518 130.34 316.178 130 316.858C130.573 313.991 130.861 312.997 133 310.858C136.632 309.437 139.055 308.858 143 308.858Z" fill="#981D22"/>
<path d="M544 456.858C540.46 459.774 536.837 462.359 533 464.858C533.35 462.267 533.738 460.281 535.125 458.046C538.009 456.219 540.677 456.67 544 456.858Z" fill="#700912"/>
<path d="M190 410.858C190 411.188 190 411.518 190 411.858C188.77 412.005 188.77 412.005 187.516 412.155C185.899 412.379 185.899 412.379 184.25 412.608C183.183 412.747 182.115 412.886 181.016 413.03C177.578 413.974 176.347 415.257 174 417.858C173.34 417.858 172.68 417.858 172 417.858C172.33 415.878 172.66 413.898 173 411.858C178.72 411.026 184.222 410.738 190 410.858Z" fill="#83171F"/>
<path d="M670 112.858C671.32 113.188 672.64 113.518 674 113.858C673.401 118.053 672.425 121.868 671 125.858C670.67 125.858 670.34 125.858 670 125.858C670 121.568 670 117.278 670 112.858Z" fill="#7C0811"/>
<path d="M13 132.858C13 135.858 13 135.858 10.75 138.358C8.56459 140.345 6.41146 142.161 4 143.858C5.79655 139.612 8.81623 134.95 13 132.858Z" fill="#861418"/>
<path d="M333 503.858C333.99 504.188 334.98 504.518 336 504.858C335.602 505.305 335.203 505.753 334.793 506.214C331.82 509.606 329.172 512.876 327 516.858C326.01 516.528 325.02 516.198 324 515.858C327 511.858 330 507.858 333 503.858Z" fill="#740E15"/>
<path d="M108 187.858C108.66 188.188 109.32 188.518 110 188.858C108.594 190.513 107.175 192.157 105.75 193.796C104.961 194.712 104.172 195.629 103.359 196.573C101.087 198.773 100.077 199.526 97 199.858C100.509 195.674 104.081 191.662 108 187.858Z" fill="#730D15"/>
<path d="M367 417.858C367.33 417.858 367.66 417.858 368 417.858C368 419.508 368 421.158 368 422.858C368.66 422.858 369.32 422.858 370 422.858C369.886 424.505 369.759 426.15 369.625 427.796C369.521 429.17 369.521 429.17 369.414 430.573C369.277 431.327 369.141 432.081 369 432.858C368.01 433.353 368.01 433.353 367 433.858C367.021 432.909 367.041 431.961 367.062 430.983C367.226 427.951 367.226 427.951 366 425.858C366.168 423.162 366.612 420.534 367 417.858Z" fill="#791018"/>
<path d="M579 196.858C579.33 196.858 579.66 196.858 580 196.858C580.407 202.278 579.04 205.928 577 210.858C576.34 210.528 575.68 210.198 575 209.858C575.475 207.878 575.955 205.899 576.438 203.921C576.704 202.818 576.971 201.716 577.246 200.581C578 197.858 578 197.858 579 196.858Z" fill="#A3090E"/>
<path d="M11 138.858C11.99 139.188 12.98 139.518 14 139.858C12.4729 143.294 10.4007 145.977 8 148.858C7.63077 142.335 7.63077 142.335 9.5 139.921C9.995 139.57 10.49 139.219 11 138.858Z" fill="#6F161F"/>
<path d="M438 4.85803C442.95 4.85803 447.9 4.85803 453 4.85803C452.67 5.51803 452.34 6.17803 452 6.85803C449.686 7.58879 447.352 8.25941 445 8.85803C445 8.19803 445 7.53803 445 6.85803C443.02 6.85803 441.04 6.85803 439 6.85803C438.67 6.19803 438.34 5.53803 438 4.85803Z" fill="#6C1B22"/>
<path d="M370 252.858C370.33 253.518 370.66 254.178 371 254.858C367.484 259.546 367.484 259.546 366 260.858C364.68 260.858 363.36 260.858 362 260.858C362 260.198 362 259.538 362 258.858C363.75 257.35 363.75 257.35 366 255.733C366.743 255.194 367.485 254.655 368.25 254.1C368.827 253.69 369.405 253.28 370 252.858Z" fill="#8A0A16"/>
<path d="M630 237.858C636.152 238.444 636.152 238.444 638 238.858C638.33 239.518 638.66 240.178 639 240.858C636.035 241.846 634.082 241.935 631 241.858C630.01 241.858 629.02 241.858 628 241.858C628.66 240.538 629.32 239.218 630 237.858Z" fill="#6F0F1B"/>
<path d="M310 64.858C311 67.858 311 67.858 309.75 71.4205C308 74.858 308 74.858 305 76.858C305.644 73.8459 306.65 71.3415 308.062 68.608C308.425 67.9016 308.787 67.1952 309.16 66.4674C309.437 65.9363 309.714 65.4052 310 64.858Z" fill="#900D11"/>
<path d="M358 283.858C358 284.848 358 285.838 358 286.858C355.69 287.188 353.38 287.518 351 287.858C350.67 287.198 350.34 286.538 350 285.858C350.66 285.858 351.32 285.858 352 285.858C352 285.198 352 284.538 352 283.858C354.491 282.613 355.411 283.081 358 283.858Z" fill="#6F171F"/>
<path d="M340.188 508.171C341.58 508.511 341.58 508.511 343 508.858C342.227 509.229 342.227 509.229 341.438 509.608C338.228 511.254 335.124 513.056 332 514.858C335.216 507.683 335.216 507.683 340.188 508.171Z" fill="#6C0709"/>
<path d="M232 195.858C234.875 195.733 234.875 195.733 238 195.858C238.66 196.518 239.32 197.178 240 197.858C237.043 199.336 234.258 198.918 231 198.858C231.33 197.868 231.66 196.878 232 195.858Z" fill="#72070E"/>
<path d="M549 466.858C549.66 467.518 550.32 468.178 551 468.858C547.356 471.287 545.288 471.02 541 470.858C543.666 469.081 546.028 467.983 549 466.858Z" fill="#370505"/>
<path d="M521 303.858C522 306.858 522 306.858 521.223 308.682C519.611 311.27 519.611 311.27 518 313.858C517.34 312.538 516.68 311.218 516 309.858C517.65 307.878 519.3 305.898 521 303.858Z" fill="#6C1019"/>
<path d="M549 459.858C545.535 461.343 545.535 461.343 542 462.858C541.67 461.868 541.34 460.878 541 459.858C544.053 458.877 545.947 458.877 549 459.858Z" fill="#530506"/>
<path d="M368 398.858C368.66 399.518 369.32 400.178 370 400.858C368.35 402.508 366.7 404.158 365 405.858C364.34 405.528 363.68 405.198 363 404.858C364.65 402.878 366.3 400.898 368 398.858Z" fill="#7D1C20"/>
<path d="M418 41.858C418.66 42.848 419.32 43.838 420 44.858C419.125 47.5455 419.125 47.5455 418 49.858C417.34 49.528 416.68 49.198 416 48.858C416 47.208 416 45.558 416 43.858C416.66 43.858 417.32 43.858 418 43.858C418 43.198 418 42.538 418 41.858Z" fill="#700A14"/>
</svg>
